Coordinates
version=1
nRows=27
nColumns=34
inDegrees=no

Units are S.I. units (second, meters, Newtons, ...)
If the header above contains a line with 'inDegrees', this indicates whether rotational values are in degrees (yes) or radians (no).

endheader
time	pelvis_tilt	pelvis_list	pelvis_rotation	pelvis_tx	pelvis_ty	pelvis_tz	hip_flexion_r	hip_adduction_r	hip_rotation_r	knee_angle_r	ankle_angle_r	subtalar_angle_r	mtp_angle_r	hip_flexion_l	hip_adduction_l	hip_rotation_l	knee_angle_l	ankle_angle_l	subtalar_angle_l	mtp_angle_l	lumbar_extension	lumbar_bending	lumbar_rotation	arm_flex_r	arm_add_r	arm_rot_r	elbow_flex_r	pro_sup_r	arm_flex_l	arm_add_l	arm_rot_l	elbow_flex_l	pro_sup_l
0.48	-0.107911	-0.11282	-0.0251222	0.432171	1.02944	-0.188154	-0.0527825	0.171884	-0.06805	0.15959	0.373871	0.199876	-9.33118e-05	0.614286	-0.16585	-0.16107	0.23197	-0.0854224	0.104704	-9.53568e-05	-0.0753272	-0.0308588	-0.0266843	-0.239207	-0.181105	-0.296434	0.916203	1.76954	-0.37242	-0.120924	-0.2257	0.682154	1.50321
0.49	-0.107776	-0.109467	-0.027349	0.444713	1.02731	-0.187516	-0.0629549	0.166694	-0.0764427	0.1679	0.388719	0.216071	-9.33336e-05	0.604075	-0.159594	-0.162721	0.177259	-0.085043	0.133499	-9.533e-05	-0.0774168	-0.0419878	-0.0232673	-0.244367	-0.183766	-0.297453	0.925628	1.77065	-0.386022	-0.116716	-0.237225	0.670415	1.4991
0.5	-0.107669	-0.105641	-0.0301372	0.457424	1.0252	-0.186925	-0.0723063	0.16072	-0.0838787	0.177829	0.402739	0.230668	-9.33554e-05	0.594293	-0.153087	-0.159741	0.130519	-0.0749824	0.159679	-9.53032e-05	-0.0791404	-0.0535703	-0.0190984	-0.24975	-0.18618	-0.299004	0.934332	1.77154	-0.39935	-0.113194	-0.247611	0.659766	1.49779
0.51	-0.107519	-0.101208	-0.0334381	0.470303	1.02313	-0.186381	-0.0808459	0.153875	-0.0899589	0.189445	0.415644	0.242994	-9.33773e-05	0.585225	-0.146393	-0.152624	0.0928982	-0.0570075	0.18183	-9.52764e-05	-0.0805388	-0.0657731	-0.0142702	-0.255249	-0.188249	-0.301059	0.942163	1.77215	-0.412388	-0.110378	-0.256921	0.650183	1.4989
0.52	-0.107262	-0.0960453	-0.0371717	0.483353	1.02114	-0.185878	-0.0886132	0.14608	-0.0944066	0.202747	0.42713	0.252532	-9.33991e-05	0.57713	-0.139531	-0.142296	0.0651551	-0.0339603	0.198758	-9.52495e-05	-0.0816437	-0.0787601	-0.00894791	-0.260756	-0.189878	-0.303562	0.94899	1.77244	-0.425157	-0.108244	-0.265304	0.641685	1.50164
0.53	-0.106853	-0.0900471	-0.0412269	0.496568	1.01926	-0.185417	-0.0956621	0.137285	-0.0971013	0.21767	0.436868	0.258974	-9.3421e-05	0.570218	-0.132467	-0.12991	0.047562	-0.00936127	0.209554	-9.52227e-05	-0.0824696	-0.0926604	-0.00335467	-0.26617	-0.190988	-0.306438	0.954713	1.77238	-0.43769	-0.10673	-0.272966	0.634302	1.50504
0.54	-0.106264	-0.0831602	-0.0454698	0.509945	1.01752	-0.184996	-0.102047	0.127465	-0.0980993	0.234102	0.444492	0.262241	-9.34428e-05	0.564625	-0.125111	-0.116622	0.0398544	0.0131153	0.213636	-9.51959e-05	-0.0830213	-0.107556	0.00224326	-0.271407	-0.191523	-0.309591	0.959266	1.77195	-0.450019	-0.105741	-0.280139	0.628052	1.50807
0.55	-0.105482	-0.0753837	-0.049744	0.523473	1.01595	-0.184614	-0.107814	0.11663	-0.0976324	0.251912	0.449592	0.262478	-9.34647e-05	0.560396	-0.117349	-0.103421	0.0412559	0.0302031	0.210787	-9.51691e-05	-0.0833078	-0.12346	0.00755422	-0.276391	-0.191455	-0.312911	0.962617	1.77109	-0.462152	-0.105162	-0.287054	0.62291	1.50982
0.56	-0.104502	-0.0667732	-0.053874	0.537141	1.01456	-0.184279	-0.112984	0.104828	-0.096079	0.270991	0.451713	0.260011	-9.34865e-05	0.557477	-0.109067	-0.0910315	0.0505768	0.0395399	0.201206	-9.51422e-05	-0.0833602	-0.140309	0.012277	-0.281057	-0.190781	-0.316273	0.964759	1.76978	-0.474058	-0.104876	-0.293923	0.618798	1.50963
0.57	-0.103319	-0.0574406	-0.0576709	0.55093	1.01337	-0.184004	-0.117539	0.0921435	-0.0939115	0.291287	0.450375	0.255286	-9.35084e-05	0.555726	-0.100186	-0.0799176	0.0663707	0.0400049	0.18555	-9.51154e-05	-0.0832431	-0.157965	0.0161162	-0.285338	-0.18952	-0.319547	0.965707	1.76799	-0.485661	-0.104776	-0.300923	0.615585	1.50719
0.58	-0.101931	-0.0475486	-0.0609439	0.564815	1.0124	-0.183806	-0.121397	0.0786961	-0.0916273	0.312849	0.4451	0.248789	-9.35303e-05	0.554943	-0.0906871	-0.0703347	0.0871099	0.0318347	0.164939	-9.50886e-05	-0.0830542	-0.176219	0.0187997	-0.289167	-0.187715	-0.322605	0.965491	1.7657	-0.496834	-0.104786	-0.308187	0.613094	1.50255
0.59	-0.100355	-0.0372948	-0.0635173	0.578765	1.01166	-0.183704	-0.124387	0.0646319	-0.0896721	0.335858	0.435461	0.24097	-9.35522e-05	0.554892	-0.0806163	-0.0623991	0.111336	0.0165014	0.140889	-9.50617e-05	-0.0829148	-0.194807	0.0201002	-0.292476	-0.185426	-0.325326	0.964161	1.76294	-0.50741	-0.10486	-0.315793	0.611123	1.49616
0.6	-0.0986573	-0.0268734	-0.0652481	0.592741	1.01116	-0.183717	-0.126232	0.0501185	-0.0883696	0.360638	0.421132	0.232184	-9.3574e-05	0.555324	-0.0700875	-0.0561364	0.137753	-0.00361502	0.11515	-9.50349e-05	-0.0829476	-0.213419	0.0198607	-0.295207	-0.18273	-0.327614	0.961789	1.75979	-0.517188	-0.104998	-0.323761	0.609466	1.48877
0.61	-0.0969187	-0.016465	-0.066049	0.606697	1.01092	-0.183863	-0.126534	0.0353282	-0.0878698	0.387647	0.401948	0.222649	-9.35959e-05	0.555998	-0.0592569	-0.0514879	0.165245	-0.0256879	0.0894674	-9.5008e-05	-0.0832312	-0.231731	0.0180169	-0.297317	-0.179722	-0.329394	0.958479	1.75635	-0.525948	-0.105234	-0.332042	0.607934	1.48132
0.62	-0.0952498	-0.0062461	-0.0659112	0.620589	1.01094	-0.184152	-0.124786	0.020416	-0.0881288	0.417431	0.377956	0.212438	-9.36178e-05	0.556683	-0.0482844	-0.0482919	0.192846	-0.0469371	0.0653126	-9.49811e-05	-0.0837756	-0.249442	0.0146124	-0.298795	-0.176513	-0.330615	0.95437	1.7528	-0.53347	-0.105632	-0.340531	0.606383	1.47478
0.63	-0.0938073	0.00363995	-0.064914	0.634369	1.0112	-0.184588	-0.120414	0.0055197	-0.0889083	0.450563	0.349439	0.201473	-9.36397e-05	0.557169	-0.037323	-0.0463351	0.219717	-0.0650133	0.0437792	-9.49543e-05	-0.0845104	-0.266294	0.00980784	-0.299669	-0.17323	-0.331238	0.949644	1.74931	-0.539551	-0.106277	-0.34907	0.604722	1.47005
0.64	-0.0927777	0.0130829	-0.0632248	0.647991	1.0117	-0.185165	-0.112832	-0.00923859	-0.0898114	0.487559	0.316929	0.189532	-9.36616e-05	0.557277	-0.0265077	-0.0454	0.245121	-0.0782552	0.0255392	-9.49274e-05	-0.0852845	-0.282086	0.00387364	-0.300001	-0.170009	-0.33122	0.944513	1.74612	-0.54402	-0.107259	-0.357472	0.602925	1.46787
0.65	-0.0923344	0.0220061	-0.0610762	0.661411	1.01242	-0.185869	-0.101511	-0.0237471	-0.0903504	0.528788	0.281189	0.176284	-9.36835e-05	0.556872	-0.0159545	-0.0452992	0.268423	-0.0857946	0.0108624	-9.49006e-05	-0.0858827	-0.296687	-0.0028346	-0.299887	-0.166991	-0.330501	0.939216	1.74341	-0.546753	-0.108665	-0.365531	0.601034	1.46872
0.66	-0.0926331	0.0303979	-0.0587358	0.674594	1.01333	-0.186677	-0.0860766	-0.037886	-0.0900374	0.574388	0.243176	0.161324	-9.37054e-05	0.555852	-0.00576818	-0.0458856	0.289112	-0.0875259	-0.000324363	-9.48737e-05	-0.0860795	-0.310009	-0.00991567	-0.299438	-0.164314	-0.328991	0.933994	1.74135	-0.547684	-0.110571	-0.373039	0.59915	1.47276
0.67	-0.0937818	0.0382775	-0.0564745	0.68751	1.01441	-0.187566	-0.066375	-0.0515217	-0.0884746	0.624209	0.203974	0.144218	-9.37274e-05	0.554141	0.00396306	-0.0470395	0.306819	-0.0839726	-0.00835445	-9.48469e-05	-0.0856885	-0.322012	-0.016976	-0.298767	-0.162107	-0.326574	0.929078	1.74006	-0.546799	-0.113032	-0.379795	0.597427	1.47985
0.68	-0.0958041	0.045665	-0.0545272	0.700139	1.01561	-0.188509	-0.0425215	-0.0645042	-0.0854279	0.677779	0.164727	0.124533	-9.37493e-05	0.551668	0.0131681	-0.0486441	0.32134	-0.0760944	-0.0137266	-9.48201e-05	-0.0846029	-0.332682	-0.0236789	-0.297972	-0.160473	-0.323123	0.924659	1.73955	-0.544141	-0.116082	-0.385617	0.596054	1.48953
0.69	-0.0986253	0.0525635	-0.0530594	0.712472	1.01693	-0.189485	-0.0149057	-0.0766663	-0.0808683	0.734314	0.126545	0.101869	-9.37713e-05	0.548364	0.0217897	-0.0505597	0.33263	-0.065078	-0.017012	-9.47932e-05	-0.0828201	-0.342019	-0.0297826	-0.297119	-0.159489	-0.318527	0.920873	1.73978	-0.53979	-0.119736	-0.390349	0.595234	1.50105
0.7	-0.102082	0.0589462	-0.0521496	0.724511	1.01833	-0.190476	0.0158455	-0.0878286	-0.0749736	0.792764	0.0904364	0.0758831	-9.37932e-05	0.544148	0.0297802	-0.052611	0.340795	-0.0521457	-0.0187729	-9.47664e-05	-0.0804428	-0.350016	-0.035159	-0.296242	-0.159188	-0.312721	0.91779	1.74067	-0.533856	-0.123993	-0.393873	0.595164	1.51357
0.71	-0.105952	0.0647524	-0.051787	0.736269	1.01982	-0.19147	0.0489427	-0.0978098	-0.0680934	0.851897	0.057239	0.0463296	-9.38152e-05	0.538936	0.0370969	-0.054592	0.34605	-0.0384053	-0.0194976	-9.47396e-05	-0.0776556	-0.356649	-0.0397916	-0.295344	-0.159562	-0.305709	0.915407	1.74207	-0.526463	-0.128839	-0.396118	0.596015	1.52616
0.72	-0.109994	0.0698929	-0.0518855	0.747765	1.02138	-0.192461	0.0835317	-0.106443	-0.0606866	0.910394	0.0275777	0.0131058	-9.38371e-05	0.532651	0.0436992	-0.0562871	0.34868	-0.0247516	-0.0195592	-9.47128e-05	-0.0746842	-0.36188	-0.0437535	-0.294405	-0.160558	-0.297585	0.913661	1.74384	-0.517734	-0.134253	-0.397062	0.597917	1.53802
0.73	-0.113992	0.0742655	-0.052308	0.759023	1.02302	-0.193446	0.118795	-0.113595	-0.053247	0.966959	0.00184412	-0.0236885	-9.38591e-05	0.525238	0.049549	-0.0575014	0.348994	-0.0118205	-0.0191994	-9.4686e-05	-0.0717476	-0.365668	-0.0471755	-0.293397	-0.162085	-0.288523	0.912443	1.74586	-0.507781	-0.140211	-0.396742	0.60095	1.54849
0.74	-0.117792	0.0777772	-0.0528952	0.77007	1.02474	-0.194425	0.154034	-0.119181	-0.0462311	1.02041	-0.0197997	-0.0636952	-9.38811e-05	0.516685	0.0546148	-0.0580887	0.347291	1.18048e-05	-0.0185348	-9.46593e-05	-0.0690167	-0.367976	-0.0502111	-0.292297	-0.164024	-0.278768	0.911627	1.74804	-0.496703	-0.146688	-0.395248	0.605142	1.55719
